<?xml version="1.0" encoding="iso-8859-1"?>
<!-- Generator: Adobe Illustrator 19.0.0, SVG Export Plug-In . SVG Version: 6.00 Build 0)  -->
<svg version="1.1" id="Layer_1" xmlns="http://www.w3.org/2000/svg" xmlns:xlink="http://www.w3.org/1999/xlink" x="0px" y="0px"
	 viewBox="0 0 512 512" style="enable-background:new 0 0 512 512;" xml:space="preserve">
<polygon style="fill:#FFCE54;" points="367.156,77.359 41.906,388.109 33.828,425.359 72.484,469.359 111.156,484.016 
	443.156,154.688 "/>
<polygon style="fill:#E6E9ED;" points="91.641,16 500.375,435.75 416.969,501.672 11.641,95.016 "/>
<polygon style="fill:#656D78;" points="42.156,430.344 33.828,484.016 85.828,473.672 "/>
<polygon style="fill:#EC87C0;" points="465.156,58.016 444.156,38.672 405.156,44.672 364.156,77.344 387.156,102.672 
	435.5,144.672 478.156,118.672 478.156,77.344 "/>
<path d="M512,421.5L346.516,256l125.406-125.406c25-25,25-65.531,0-90.516c-12.5-12.5-28.875-18.75-45.25-18.75
	s-32.766,6.25-45.266,18.75l0,0L256,165.5L90.516,0L0,90.5L165.484,256L21.328,400.156v90.516h90.516L256,346.5L421.484,512
	L512,421.5z M331.422,240.906l-22.562-22.562l95.25-95.234l22.562,22.562L331.422,240.906z M396.5,55.156
	c8.062-8.062,18.766-12.5,30.172-12.5c11.391,0,22.109,4.438,30.172,12.5c16.625,16.641,16.625,43.719,0,60.344l-15.094,15.094
	L381.406,70.25L396.5,55.156z M366.328,85.328l22.688,22.703l-95.234,95.234l-22.703-22.688L366.328,85.328z M90.516,30.172
	l29.719,29.719l-15.094,15.078l0,0c-4.156,4.172-4.156,10.938,0,15.094c4.172,4.156,10.922,4.156,15.094,0c0,0,0,0,0.016-0.016
	l15.062-15.078l30.172,30.188l-15.078,15.078l0,0c-4.172,4.172-4.172,10.922,0,15.078c4.156,4.172,10.922,4.172,15.078,0h0.016
	l15.078-15.078l30.172,30.172l-15.078,15.062c0,0.016-0.016,0.016-0.016,0.016c-4.156,4.172-4.156,10.922,0,15.078
	c4.172,4.188,10.922,4.188,15.094,0v0.016l15.078-15.078L256,195.656l-15.078,15.094c-4.172,4.156-4.172,10.906,0,15.078
	c4.156,4.172,10.906,4.172,15.078,0l15.078-15.078l30.172,30.156L286.172,256c-4.172,4.156-4.172,10.922,0,15.094
	c4.156,4.156,10.922,4.156,15.078,0c0.016-0.016,0.016-0.016,0.016-0.016L316.344,256l30.172,30.172l-15.094,15.078l0,0
	c-4.156,4.172-4.156,10.922,0,15.094c4.172,4.156,10.922,4.156,15.094,0l0,0l0,0l15.078-15.094l30.172,30.188L376.688,346.5
	c-4.172,4.188-4.172,10.938,0,15.094c4.156,4.156,10.906,4.172,15.078,0l0,0l15.078-15.094l30.172,30.188l-15.062,15.062
	l-0.016,0.016c-4.172,4.172-4.172,10.922,0,15.078c4.172,4.172,10.922,4.172,15.078,0l0,0l0,0l15.094-15.078l29.719,29.734
	l-60.344,60.328L30.172,90.5L90.516,30.172z M42.656,469.344v-17.688l17.688,17.688H42.656z M103,469.344H90.5L42.656,421.5V409
	l137.922-137.906l22.688,22.688L96.828,400.219l0,0c-4.172,4.172-4.172,10.938,0,15.094c4.156,4.156,10.906,4.156,15.078,0
	l106.453-106.438l22.562,22.547L103,469.344z"/>
<g>
</g>
<g>
</g>
<g>
</g>
<g>
</g>
<g>
</g>
<g>
</g>
<g>
</g>
<g>
</g>
<g>
</g>
<g>
</g>
<g>
</g>
<g>
</g>
<g>
</g>
<g>
</g>
<g>
</g>
</svg>
